<?xml version="1.0" encoding="UTF-8"?>
<svg width="70" height="70" id="Layer_1" data-name="Layer 1" xmlns="http://www.w3.org/2000/svg" viewBox="0 0 70 70">
  <defs>
    <style>
      .cls-1 {
        fill: #fff;
      }

      .cls-2 {
        fill: #00f2ea;
      }

      .cls-3 {
        fill: #ff004f;
      }
    </style>
  </defs>
  <rect class="cls-1" width="70" height="70" rx="14" ry="14"/>
  <path class="cls-3" d="m42.78,30.17c2.78,1.99,6.18,3.16,9.85,3.16v-7.09c-.7,0-1.39-.07-2.07-.22v5.58c-3.67,0-7.07-1.17-9.85-3.16v14.47c0,7.24-5.85,13.11-13.06,13.11-2.69,0-5.19-.82-7.27-2.22,2.37,2.43,5.68,3.94,9.34,3.94,7.21,0,13.06-5.87,13.06-13.11v-14.47h0Zm2.55-7.16c-1.42-1.56-2.35-3.57-2.55-5.79v-.91h-1.96c.49,2.82,2.18,5.24,4.51,6.7Zm-20.39,25.24c-.79-1.04-1.22-2.32-1.22-3.63,0-3.31,2.68-6,5.98-6,.62,0,1.23.09,1.81.28v-7.25c-.68-.09-1.38-.13-2.07-.12v5.64c-.59-.19-1.2-.28-1.81-.28-3.3,0-5.98,2.68-5.98,6,0,2.34,1.34,4.37,3.29,5.36Z"/>
  <path d="m40.71,28.44c2.78,1.99,6.18,3.16,9.85,3.16v-5.58c-2.05-.44-3.86-1.51-5.23-3.01-2.34-1.46-4.02-3.88-4.51-6.7h-5.15v28.33c-.01,3.3-2.68,5.98-5.98,5.98-1.94,0-3.66-.93-4.76-2.37-1.95-.99-3.29-3.02-3.29-5.36,0-3.31,2.68-6,5.98-6,.63,0,1.24.1,1.81.28v-5.64c-7.09.15-12.79,5.96-12.79,13.11,0,3.57,1.42,6.8,3.72,9.17,2.08,1.4,4.58,2.22,7.27,2.22,7.21,0,13.06-5.87,13.06-13.11v-14.47h0Z"/>
  <path class="cls-2" d="m50.56,26.02v-1.51c-1.85,0-3.66-.52-5.23-1.5,1.39,1.53,3.22,2.58,5.23,3.01Zm-9.74-9.71c-.05-.27-.08-.54-.11-.81v-.91h-7.11v28.33c-.01,3.3-2.68,5.98-5.98,5.98-.97,0-1.88-.23-2.69-.64,1.09,1.44,2.82,2.37,4.76,2.37,3.29,0,5.96-2.67,5.98-5.98v-28.33h5.15Zm-11.38,15.22v-1.61c-.59-.08-1.19-.12-1.79-.12-7.22,0-13.06,5.87-13.06,13.11,0,4.54,2.3,8.54,5.79,10.89-2.3-2.36-3.72-5.6-3.72-9.17,0-7.15,5.7-12.96,12.79-13.11Z"/>
</svg>